<?xml version="1.0" encoding="iso-8859-1"?>
<!-- Generator: Adobe Illustrator 19.0.0, SVG Export Plug-In . SVG Version: 6.00 Build 0)  -->
<svg version="1.1" id="Capa_1" xmlns="http://www.w3.org/2000/svg" xmlns:xlink="http://www.w3.org/1999/xlink" x="0px" y="0px"
	 viewBox="0 0 511.999 511.999" style="enable-background:new 0 0 511.999 511.999;" xml:space="preserve">
<path style="fill:#87AFB9;" d="M245.892,267.054c-5.973,0-11.685-3.407-14.345-9.188c-3.641-7.917-0.175-17.287,7.741-20.928
	c76.965-35.4,131.395-84.599,157.403-142.279c19.544-43.343,16.407-76.831,16.373-77.164c-0.968-8.66,5.271-16.427,13.932-17.397
	c8.66-0.966,16.469,5.305,17.438,13.966c0.184,1.641,4.238,40.786-18.061,91.512c-32.608,74.176-99.701,125.904-173.897,160.032
	C250.34,266.589,248.098,267.054,245.892,267.054z"/>
<g>
	<path style="fill:#A55A3C;" d="M92.605,509.207c-11.533-6.152-15.895-20.488-9.744-32.021L186.824,283.16
		c6.153-11.533,20.487-15.895,32.021-9.744c11.533,6.152,15.895,20.488,9.744,32.022L124.627,499.465
		C118.505,510.941,104.191,515.388,92.605,509.207z"/>
	<path style="fill:#A55A3C;" d="M273.905,435.512c-11.905-5.396-17.181-19.422-11.784-31.327l36.558-80.644h-52.785
		c-13.071,0-23.667-10.596-23.667-23.667s10.597-23.667,23.667-23.667h89.5c17.163,0,28.661,17.765,21.556,33.439l-51.717,114.083
		C299.853,435.593,285.847,440.926,273.905,435.512z"/>
</g>
<path style="fill:#FFB69E;" d="M381.551,15.587c-9.419-5.471-21.49-2.273-26.961,7.146l-36.576,62.955l-63.579,51.295h-62.215
	c-0.125-0.019-0.244-0.052-0.37-0.069l-70.565-9.551l-15.074-73.597c-2.185-10.67-12.604-17.548-23.279-15.363
	c-10.671,2.186-17.55,12.608-15.364,23.279l17.882,87.306c1.681,8.211,8.37,14.463,16.676,15.587l63.182,8.551v150.412h104.469
	V175.287l75.841-61.189c1.875-1.513,3.459-3.358,4.669-5.441l38.407-66.108C394.168,33.131,390.97,21.06,381.551,15.587z"/>
<path style="fill:#177D74;" d="M354.59,22.733l-36.576,62.955l-63.579,51.295h-17.54c0.292,10.684-9.646,19.726-20.022,19.726
	c-11.12,0-19.37-9.009-19.991-19.726h-4.661c-0.125-0.019-0.244-0.052-0.37-0.069l-70.565-9.551l-15.074-73.597l-38.643,7.915
	l17.882,87.306c1.681,8.211,8.37,14.463,16.676,15.587l63.182,8.551v150.412h104.469V175.287l75.841-61.189
	c1.875-1.513,3.459-3.358,4.669-5.441l38.407-66.108L354.59,22.733z"/>
<circle style="fill:#FFB69E;" cx="217.548" cy="80.621" r="40.876"/>
<path style="fill:#CD5014;" d="M272.934,257.584H168.466c-8.714,0-15.778-7.064-15.778-15.778c0-8.714,7.065-15.778,15.778-15.778
	h104.469c8.714,0,15.778,7.064,15.778,15.778C288.712,250.519,281.648,257.584,272.934,257.584z"/>
<path style="fill:#A03C19;" d="M231.744,498.465c-8.714,0-15.778-7.064-15.778-15.778V241.804c0-8.714,7.065-15.778,15.778-15.778
	c8.714,0,15.778,7.064,15.778,15.778v240.882C247.523,491.401,240.459,498.465,231.744,498.465z"/>
<g>
</g>
<g>
</g>
<g>
</g>
<g>
</g>
<g>
</g>
<g>
</g>
<g>
</g>
<g>
</g>
<g>
</g>
<g>
</g>
<g>
</g>
<g>
</g>
<g>
</g>
<g>
</g>
<g>
</g>
</svg>
